  0
SECTION
  2
HEADER
  9
$ACADVER
  1
AC1024
  9
$ACADMAINTVER
 70
6
  9
$DWGCODEPAGE
  3
ANSI_1252
  9
$LASTSAVEDBY
  1
ezdxf
  9
$INSBASE
 10
0.0
 20
0.0
 30
0.0
  9
$EXTMIN
 10
1e+20
 20
1e+20
 30
1e+20
  9
$EXTMAX
 10
-1e+20
 20
-1e+20
 30
-1e+20
  9
$LIMMIN
 10
0.0
 20
0.0
  9
$LIMMAX
 10
420.0
 20
297.0
  9
$ORTHOMODE
 70
0
  9
$REGENMODE
 70
1
  9
$FILLMODE
 70
1
  9
$QTEXTMODE
 70
0
  9
$MIRRTEXT
 70
1
  9
$LTSCALE
 40
1.0
  9
$ATTMODE
 70
1
  9
$TEXTSIZE
 40
2.5
  9
$TRACEWID
 40
1.0
  9
$TEXTSTYLE
  7
Standard
  9
$CLAYER
  8
0
  9
$CELTYPE
  6
ByLayer
  9
$CECOLOR
 62
256
  9
$CELTSCALE
 40
1.0
  9
$DISPSILH
 70
0
  9
$DIMSCALE
 40
1.0
  9
$DIMASZ
 40
2.5
  9
$DIMEXO
 40
0.625
  9
$DIMDLI
 40
3.75
  9
$DIMRND
 40
0.0
  9
$DIMDLE
 40
0.0
  9
$DIMEXE
 40
1.25
  9
$DIMTP
 40
0.0
  9
$DIMTM
 40
0.0
  9
$DIMTXT
 40
2.5
  9
$DIMCEN
 40
2.5
  9
$DIMTSZ
 40
0.0
  9
$DIMTOL
 70
0
  9
$DIMLIM
 70
0
  9
$DIMTIH
 70
0
  9
$DIMTOH
 70
0
  9
$DIMSE1
 70
0
  9
$DIMSE2
 70
0
  9
$DIMTAD
 70
1
  9
$DIMZIN
 70
8
  9
$DIMBLK
  1

  9
$DIMASO
 70
1
  9
$DIMSHO
 70
1
  9
$DIMPOST
  1

  9
$DIMAPOST
  1

  9
$DIMALT
 70
0
  9
$DIMALTD
 70
3
  9
$DIMALTF
 40
0.03937007874
  9
$DIMLFAC
 40
1.0
  9
$DIMTOFL
 70
1
  9
$DIMTVP
 40
0.0
  9
$DIMTIX
 70
0
  9
$DIMSOXD
 70
0
  9
$DIMSAH
 70
0
  9
$DIMBLK1
  1

  9
$DIMBLK2
  1

  9
$DIMSTYLE
  2
ISO-25
  9
$DIMCLRD
 70
0
  9
$DIMCLRE
 70
0
  9
$DIMCLRT
 70
0
  9
$DIMTFAC
 40
1.0
  9
$DIMGAP
 40
0.625
  9
$DIMJUST
 70
0
  9
$DIMSD1
 70
0
  9
$DIMSD2
 70
0
  9
$DIMTOLJ
 70
0
  9
$DIMTZIN
 70
8
  9
$DIMALTZ
 70
0
  9
$DIMALTTZ
 70
0
  9
$DIMUPT
 70
0
  9
$DIMDEC
 70
2
  9
$DIMTDEC
 70
2
  9
$DIMALTU
 70
2
  9
$DIMALTTD
 70
3
  9
$DIMTXSTY
  7
Standard
  9
$DIMAUNIT
 70
0
  9
$DIMADEC
 70
0
  9
$DIMALTRND
 40
0.0
  9
$DIMAZIN
 70
0
  9
$DIMDSEP
 70
44
  9
$DIMATFIT
 70
3
  9
$DIMFRAC
 70
0
  9
$DIMLDRBLK
  1

  9
$DIMLUNIT
 70
2
  9
$DIMLWD
 70
-2
  9
$DIMLWE
 70
-2
  9
$DIMTMOVE
 70
0
  9
$DIMFXL
 40
1.0
  9
$DIMFXLON
 70
0
  9
$DIMJOGANG
 40
0.785398163397
  9
$DIMTFILL
 70
0
  9
$DIMTFILLCLR
 70
0
  9
$DIMARCSYM
 70
0
  9
$DIMLTYPE
  6

  9
$DIMLTEX1
  6

  9
$DIMLTEX2
  6

  9
$DIMTXTDIRECTION
 70
0
  9
$LUNITS
 70
2
  9
$LUPREC
 70
4
  9
$SKETCHINC
 40
1.0
  9
$FILLETRAD
 40
10.0
  9
$AUNITS
 70
0
  9
$AUPREC
 70
2
  9
$MENU
  1
.
  9
$ELEVATION
 40
0.0
  9
$PELEVATION
 40
0.0
  9
$THICKNESS
 40
0.0
  9
$LIMCHECK
 70
0
  9
$CHAMFERA
 40
0.0
  9
$CHAMFERB
 40
0.0
  9
$CHAMFERC
 40
0.0
  9
$CHAMFERD
 40
0.0
  9
$SKPOLY
 70
0
  9
$TDCREATE
 40
2460825.4688773146
  9
$TDUCREATE
 40
2458532.153996898
  9
$TDUPDATE
 40
2460825.4688773146
  9
$TDUUPDATE
 40
2458532.1544311
  9
$TDINDWG
 40
0.0
  9
$TDUSRTIMER
 40
0.0
  9
$USRTIMER
 70
1
  9
$ANGBASE
 50
0.0
  9
$ANGDIR
 70
0
  9
$PDMODE
 70
0
  9
$PDSIZE
 40
0.0
  9
$PLINEWID
 40
0.0
  9
$SPLFRAME
 70
0
  9
$SPLINETYPE
 70
6
  9
$SPLINESEGS
 70
8
  9
$HANDSEED
  5
3D
  9
$SURFTAB1
 70
6
  9
$SURFTAB2
 70
6
  9
$SURFTYPE
 70
6
  9
$SURFU
 70
6
  9
$SURFV
 70
6
  9
$UCSBASE
  2

  9
$UCSNAME
  2

  9
$UCSORG
 10
0.0
 20
0.0
 30
0.0
  9
$UCSXDIR
 10
1.0
 20
0.0
 30
0.0
  9
$UCSYDIR
 10
0.0
 20
1.0
 30
0.0
  9
$UCSORTHOREF
  2

  9
$UCSORTHOVIEW
 70
0
  9
$UCSORGTOP
 10
0.0
 20
0.0
 30
0.0
  9
$UCSORGBOTTOM
 10
0.0
 20
0.0
 30
0.0
  9
$UCSORGLEFT
 10
0.0
 20
0.0
 30
0.0
  9
$UCSORGRIGHT
 10
0.0
 20
0.0
 30
0.0
  9
$UCSORGFRONT
 10
0.0
 20
0.0
 30
0.0
  9
$UCSORGBACK
 10
0.0
 20
0.0
 30
0.0
  9
$PUCSBASE
  2

  9
$PUCSNAME
  2

  9
$PUCSORG
 10
0.0
 20
0.0
 30
0.0
  9
$PUCSXDIR
 10
1.0
 20
0.0
 30
0.0
  9
$PUCSYDIR
 10
0.0
 20
1.0
 30
0.0
  9
$PUCSORTHOREF
  2

  9
$PUCSORTHOVIEW
 70
0
  9
$PUCSORGTOP
 10
0.0
 20
0.0
 30
0.0
  9
$PUCSORGBOTTOM
 10
0.0
 20
0.0
 30
0.0
  9
$PUCSORGLEFT
 10
0.0
 20
0.0
 30
0.0
  9
$PUCSORGRIGHT
 10
0.0
 20
0.0
 30
0.0
  9
$PUCSORGFRONT
 10
0.0
 20
0.0
 30
0.0
  9
$PUCSORGBACK
 10
0.0
 20
0.0
 30
0.0
  9
$USERI1
 70
0
  9
$USERI2
 70
0
  9
$USERI3
 70
0
  9
$USERI4
 70
0
  9
$USERI5
 70
0
  9
$USERR1
 40
0.0
  9
$USERR2
 40
0.0
  9
$USERR3
 40
0.0
  9
$USERR4
 40
0.0
  9
$USERR5
 40
0.0
  9
$WORLDVIEW
 70
1
  9
$SHADEDGE
 70
3
  9
$SHADEDIF
 70
70
  9
$TILEMODE
 70
1
  9
$MAXACTVP
 70
64
  9
$PINSBASE
 10
0.0
 20
0.0
 30
0.0
  9
$PLIMCHECK
 70
0
  9
$PEXTMIN
 10
1e+20
 20
1e+20
 30
1e+20
  9
$PEXTMAX
 10
-1e+20
 20
-1e+20
 30
-1e+20
  9
$PLIMMIN
 10
0.0
 20
0.0
  9
$PLIMMAX
 10
420.0
 20
297.0
  9
$UNITMODE
 70
0
  9
$VISRETAIN
 70
1
  9
$PLINEGEN
 70
0
  9
$PSLTSCALE
 70
1
  9
$TREEDEPTH
 70
3020
  9
$CMLSTYLE
  2
Standard
  9
$CMLJUST
 70
0
  9
$CMLSCALE
 40
20.0
  9
$PROXYGRAPHICS
 70
1
  9
$MEASUREMENT
 70
1
  9
$CELWEIGHT
370
-1
  9
$ENDCAPS
280
0
  9
$JOINSTYLE
280
0
  9
$LWDISPLAY
290
0
  9
$INSUNITS
 70
6
  9
$HYPERLINKBASE
  1

  9
$STYLESHEET
  1

  9
$XEDIT
290
1
  9
$CEPSNTYPE
380
0
  9
$PSTYLEMODE
290
1
  9
$FINGERPRINTGUID
  2
{194AA0C2-2A35-40B2-B883-2324239DC7E7}
  9
$VERSIONGUID
  2
{1ABA6A3E-F62B-4257-A5F5-8682E0CC6E6C}
  9
$EXTNAMES
290
1
  9
$PSVPSCALE
 40
0.0
  9
$OLESTARTUP
290
0
  9
$SORTENTS
280
127
  9
$INDEXCTL
280
0
  9
$HIDETEXT
280
1
  9
$XCLIPFRAME
280
1
  9
$HALOGAP
280
0
  9
$OBSCOLOR
 70
257
  9
$OBSLTYPE
280
0
  9
$INTERSECTIONDISPLAY
280
0
  9
$INTERSECTIONCOLOR
 70
257
  9
$DIMASSOC
280
2
  9
$PROJECTNAME
  1

  9
$CAMERADISPLAY
290
0
  9
$LENSLENGTH
 40
50.0
  9
$CAMERAHEIGHT
 40
0.0
  9
$STEPSPERSEC
 40
24.0
  9
$STEPSIZE
 40
100.0
  9
$3DDWFPREC
 40
2.0
  9
$PSOLWIDTH
 40
0.005
  9
$PSOLHEIGHT
 40
0.08
  9
$LOFTANG1
 40
1.570796326795
  9
$LOFTANG2
 40
1.570796326795
  9
$LOFTMAG1
 40
0.0
  9
$LOFTMAG2
 40
0.0
  9
$LOFTPARAM
 70
7
  9
$LOFTNORMALS
280
1
  9
$LATITUDE
 40
37.795
  9
$LONGITUDE
 40
-122.394
  9
$NORTHDIRECTION
 40
0.0
  9
$TIMEZONE
 70
-8000
  9
$LIGHTGLYPHDISPLAY
280
1
  9
$TILEMODELIGHTSYNCH
280
1
  9
$CMATERIAL
347
20
  9
$SOLIDHIST
280
0
  9
$SHOWHIST
280
1
  9
$DWFFRAME
280
2
  9
$DGNFRAME
280
2
  9
$REALWORLDSCALE
290
1
  9
$INTERFERECOLOR
 62
256
  9
$CSHADOW
280
0
  9
$SHADOWPLANELOCATION
 40
0.0
  0
ENDSEC
  0
SECTION
  2
CLASSES
  0
CLASS
  1
ACDBDICTIONARYWDFLT
  2
AcDbDictionaryWithDefault
  3
ObjectDBX Classes
 90
0
 91
0
280
0
281
0
  0
CLASS
  1
SUN
  2
AcDbSun
  3
SCENEOE
 90
1153
 91
0
280
0
281
0
  0
CLASS
  1
VISUALSTYLE
  2
AcDbVisualStyle
  3
ObjectDBX Classes
 90
4095
 91
0
280
0
281
0
  0
CLASS
  1
MATERIAL
  2
AcDbMaterial
  3
ObjectDBX Classes
 90
1153
 91
0
280
0
281
0
  0
CLASS
  1
SCALE
  2
AcDbScale
  3
ObjectDBX Classes
 90
1153
 91
0
280
0
281
0
  0
CLASS
  1
TABLESTYLE
  2
AcDbTableStyle
  3
ObjectDBX Classes
 90
4095
 91
0
280
0
281
0
  0
CLASS
  1
MLEADERSTYLE
  2
AcDbMLeaderStyle
  3
ACDB_MLEADERSTYLE_CLASS
 90
4095
 91
0
280
0
281
0
  0
CLASS
  1
DICTIONARYVAR
  2
AcDbDictionaryVar
  3
ObjectDBX Classes
 90
0
 91
0
280
0
281
0
  0
CLASS
  1
CELLSTYLEMAP
  2
AcDbCellStyleMap
  3
ObjectDBX Classes
 90
1152
 91
0
280
0
281
0
  0
CLASS
  1
MENTALRAYRENDERSETTINGS
  2
AcDbMentalRayRenderSettings
  3
SCENEOE
 90
1024
 91
0
280
0
281
0
  0
CLASS
  1
ACDBDETAILVIEWSTYLE
  2
AcDbDetailViewStyle
  3
ObjectDBX Classes
 90
1025
 91
0
280
0
281
0
  0
CLASS
  1
ACDBSECTIONVIEWSTYLE
  2
AcDbSectionViewStyle
  3
ObjectDBX Classes
 90
1025
 91
0
280
0
281
0
  0
CLASS
  1
RASTERVARIABLES
  2
AcDbRasterVariables
  3
ISM
 90
0
 91
0
280
0
281
0
  0
CLASS
  1
LAYOUT
  2
AcDbLayout
  3
ObjectDBX Classes
 90
0
 91
0
280
0
281
0
  0
CLASS
  1
ACDBPLACEHOLDER
  2
AcDbPlaceHolder
  3
ObjectDBX Classes
 90
0
 91
0
280
0
281
0
  0
ENDSEC
  0
SECTION
  2
TABLES
  0
TABLE
  2
VPORT
  5
8
330
0
100
AcDbSymbolTable
 70
1
  0
VPORT
  5
23
330
8
100
AcDbSymbolTableRecord
100
AcDbViewportTableRecord
  2
*Active
 70
0
 10
0.0
 20
0.0
 11
1.0
 21
1.0
 12
0.0
 22
0.0
 13
0.0
 23
0.0
 14
0.5
 24
0.5
 15
0.5
 25
0.5
 16
0.0
 26
0.0
 36
1.0
 17
0.0
 27
0.0
 37
0.0
 40
1000.0
 41
1.34
 42
50.0
 43
0.0
 44
0.0
 50
0.0
 51
0.0
 71
0
 72
1000
 73
1
 74
3
 75
0
 76
0
 77
0
 78
0
281
0
 65
0
146
0.0
  0
ENDTAB
  0
TABLE
  2
LTYPE
  5
2
330
0
100
AcDbSymbolTable
 70
3
  0
LTYPE
  5
24
330
2
100
AcDbSymbolTableRecord
100
AcDbLinetypeTableRecord
  2
ByBlock
 70
0
  3

 72
65
 73
0
 40
0.0
  0
LTYPE
  5
25
330
2
100
AcDbSymbolTableRecord
100
AcDbLinetypeTableRecord
  2
ByLayer
 70
0
  3

 72
65
 73
0
 40
0.0
  0
LTYPE
  5
26
330
2
100
AcDbSymbolTableRecord
100
AcDbLinetypeTableRecord
  2
Continuous
 70
0
  3

 72
65
 73
0
 40
0.0
  0
ENDTAB
  0
TABLE
  2
LAYER
  5
1
330
0
100
AcDbSymbolTable
 70
2
  0
LAYER
  5
27
330
1
100
AcDbSymbolTableRecord
100
AcDbLayerTableRecord
  2
0
 70
0
 62
7
  6
Continuous
370
-3
390
13
347
21
  0
LAYER
  5
28
330
1
100
AcDbSymbolTableRecord
100
AcDbLayerTableRecord
  2
Defpoints
 70
0
 62
7
  6
Continuous
290
0
370
-3
390
13
347
21
  0
ENDTAB
  0
TABLE
  2
STYLE
  5
5
330
0
100
AcDbSymbolTable
 70
1
  0
STYLE
  5
29
330
5
100
AcDbSymbolTableRecord
100
AcDbTextStyleTableRecord
  2
Standard
 70
0
 40
0.0
 41
1.0
 50
0.0
 71
0
 42
2.5
  3
txt
  4

  0
ENDTAB
  0
TABLE
  2
VIEW
  5
7
330
0
100
AcDbSymbolTable
 70
0
  0
ENDTAB
  0
TABLE
  2
UCS
  5
6
330
0
100
AcDbSymbolTable
 70
0
  0
ENDTAB
  0
TABLE
  2
APPID
  5
3
330
0
100
AcDbSymbolTable
 70
3
  0
APPID
  5
2A
330
3
100
AcDbSymbolTableRecord
100
AcDbRegAppTableRecord
  2
ACAD
 70
0
  0
APPID
  5
3A
330
3
100
AcDbSymbolTableRecord
100
AcDbRegAppTableRecord
  2
HATCHBACKGROUNDCOLOR
 70
0
  0
APPID
  5
3B
330
3
100
AcDbSymbolTableRecord
100
AcDbRegAppTableRecord
  2
EZDXF
 70
0
  0
ENDTAB
  0
TABLE
  2
DIMSTYLE
  5
4
330
0
100
AcDbSymbolTable
 70
1
100
AcDbDimStyleTable
  0
DIMSTYLE
105
2B
330
4
100
AcDbSymbolTableRecord
100
AcDbDimStyleTableRecord
  2
Standard
 70
0
 40
1.0
 41
2.5
 42
0.625
 43
3.75
 44
1.25
 45
0.0
 46
0.0
 47
0.0
 48
0.0
 49
2.5
140
2.5
141
2.5
142
0.0
143
0.03937007874
144
1.0
145
0.0
146
1.0
147
0.625
148
0.0
 69
0
 70
0
 71
0
 72
0
 73
0
 74
0
 75
0
 76
0
 77
1
 78
8
 79
3
170
0
171
3
172
1
173
0
174
0
175
0
176
0
177
0
178
0
179
2
271
2
272
2
273
2
274
3
275
0
276
0
277
2
278
44
279
0
280
0
281
0
282
0
283
0
284
8
285
0
286
0
288
0
289
3
290
0
371
-2
372
-2
  0
ENDTAB
  0
TABLE
  2
BLOCK_RECORD
  5
9
330
0
100
AcDbSymbolTable
 70
2
  0
BLOCK_RECORD
  5
17
330
9
100
AcDbSymbolTableRecord
100
AcDbBlockTableRecord
  2
*Model_Space
340
1A
 70
0
280
1
281
0
  0
BLOCK_RECORD
  5
1B
330
9
100
AcDbSymbolTableRecord
100
AcDbBlockTableRecord
  2
*Paper_Space
340
1E
 70
0
280
1
281
0
  0
ENDTAB
  0
ENDSEC
  0
SECTION
  2
BLOCKS
  0
BLOCK
  5
18
330
17
100
AcDbEntity
  8
0
100
AcDbBlockBegin
  2
*Model_Space
 70
0
 10
0.0
 20
0.0
 30
0.0
  3
*Model_Space
  1

  0
ENDBLK
  5
19
330
17
100
AcDbEntity
  8
0
100
AcDbBlockEnd
  0
BLOCK
  5
1C
330
1B
100
AcDbEntity
  8
0
100
AcDbBlockBegin
  2
*Paper_Space
 70
0
 10
0.0
 20
0.0
 30
0.0
  3
*Paper_Space
  1

  0
ENDBLK
  5
1D
330
1B
100
AcDbEntity
  8
0
100
AcDbBlockEnd
  0
ENDSEC
  0
SECTION
  2
ENTITIES
  0
LWPOLYLINE
  5
2F
330
17
100
AcDbEntity
  8
0
100
AcDbPolyline
 90
59
 70
1
 10
12.634375
 20
18.62890625
 10
14.1578125
 20
18.62890625
 10
14.1578125
 20
17.84765625
 10
14.227392578125
 20
16.705078125
 10
14.4361328125
 20
15.89453125
 10
14.831640625
 20
15.309814453125
 10
15.4615234375
 20
14.8447265625
 10
16.307470703125
 20
14.540771484375
 10
17.351171875
 20
14.439453125
 10
18.51083984375
 20
14.52734375
 10
19.64609375
 20
14.791015625
 10
19.275
 20
16.705078125
 10
18.63291015625
 20
16.587890625
 10
18.015234375
 20
16.548828125
 10
17.503759765625
 20
16.618408203125
 10
17.1607421875
 20
16.8271484375
 10
16.966650390625
 20
17.233642578125
 10
16.901953125
 20
17.896484375
 10
16.901953125
 20
18.62890625
 10
18.952734375
 20
18.62890625
 10
18.952734375
 20
19.630429469273743
 10
19.44140625
 20
19.1171875
 10
20.7158203125
 20
18.5751953125
 10
22.48828125
 20
18.39453125
 10
24.08984375
 20
18.503173828125
 10
25.22265625
 20
18.8291015625
 10
25.988037109375
 20
19.322265625
 10
26.4873046875
 20
19.9326171875
 10
26.761962890625
 20
20.881103515625
 10
26.853515625
 20
22.388671875
 10
26.82421875
 20
25.591796875
 10
26.857177734375
 20
26.779541015625
 10
26.9560546875
 20
27.6083984375
 10
27.145263671875
 20
28.281005859375
 10
27.44921875
 20
29.0
 10
24.734375
 20
29.0
 10
24.61474609375
 20
28.66064453125
 10
24.470703125
 20
28.189453125
 10
24.412109375
 20
27.98681640625
 10
24.373046875
 20
27.8671875
 10
23.6455078125
 20
28.46533203125
 10
22.869140625
 20
28.892578125
 10
22.04150390625
 20
29.14892578125
 10
21.16015625
 20
29.234375
 10
19.728271484375
 20
29.01708984375
 10
18.6357421875
 20
28.365234375
 10
17.943603515625
 20
27.38134765625
 10
17.712890625
 20
26.16796875
 10
17.81787109375
 20
25.336669921875
 10
18.1328125
 20
24.6005859375
 10
18.636962890625
 20
23.99267578125
 10
18.921113967556593
 20
23.80392933087439
 10
17.634375
 20
24.3369140625
 10
16.901953125
 20
24.033534988479353
 10
16.901953125
 20
29.0
 10
14.1578125
 20
29.0
 10
14.1578125
 20
20.787109375
 10
12.634375
 20
20.787109375
 10
12.634375
 20
18.62890625
  0
LWPOLYLINE
  5
30
330
17
100
AcDbEntity
  8
0
100
AcDbPolyline
 90
17
 70
1
 10
19.447734143128244
 20
23.494611731546847
 10
20.233642578125
 20
23.202880859375
 10
21.4921875
 20
22.90625
 10
23.12060546875
 20
22.55712890625
 10
24.158203125
 20
22.232421875
 10
24.158203125
 20
21.958984375
 10
24.060546875
 20
21.281494140625
 10
23.767578125
 20
20.8310546875
 10
23.20361328125
 20
20.578369140625
 10
22.29296875
 20
20.494140625
 10
21.64111328125
 20
20.566162109375
 10
21.150390625
 20
20.7822265625
 10
20.779296875
 20
21.178955078125
 10
20.486328125
 20
21.79296875
 10
20.086280333356196
 20
21.720803266017196
 10
20.134375
 20
21.8369140625
 10
19.447734143128244
 20
23.494611731546847
  0
LWPOLYLINE
  5
31
330
17
100
AcDbEntity
  8
0
100
AcDbPolyline
 90
18
 70
1
 10
24.158203125
 20
24.01953125
 10
23.47705078125
 20
24.21240234375
 10
22.48828125
 20
24.439453125
 10
21.54345703125
 20
24.68115234375
 10
20.994140625
 20
24.91796875
 10
20.59130859375
 20
25.35009765625
 10
20.45703125
 20
25.884765625
 10
20.564453125
 20
26.421875
 10
20.88671875
 20
26.880859375
 10
21.375
 20
27.19580078125
 10
21.98046875
 20
27.30078125
 10
22.70556640625
 20
27.1787109375
 10
23.396484375
 20
26.8125
 10
23.80908203125
 20
26.39990234375
 10
24.05078125
 20
25.904296875
 10
24.13134765625
 20
25.39404296875
 10
24.158203125
 20
24.56640625
 10
24.158203125
 20
24.01953125
  0
LWPOLYLINE
  5
32
330
17
100
AcDbEntity
  8
0
100
AcDbPolyline
 90
47
 70
1
 10
31.486328125
 20
21.79296875
 10
28.99609375
 20
21.34375
 10
29.5673828125
 20
20.03515625
 10
30.44140625
 20
19.1171875
 10
31.7158203125
 20
18.5751953125
 10
33.48828125
 20
18.39453125
 10
35.08984375
 20
18.503173828125
 10
36.22265625
 20
18.8291015625
 10
36.988037109375
 20
19.322265625
 10
37.4873046875
 20
19.9326171875
 10
37.761962890625
 20
20.881103515625
 10
37.853515625
 20
22.388671875
 10
37.82421875
 20
25.591796875
 10
37.857177734375
 20
26.779541015625
 10
37.9560546875
 20
27.6083984375
 10
38.145263671875
 20
28.281005859375
 10
38.44921875
 20
29.0
 10
35.734375
 20
29.0
 10
35.61474609375
 20
28.66064453125
 10
35.470703125
 20
28.189453125
 10
35.412109375
 20
27.98681640625
 10
35.373046875
 20
27.8671875
 10
34.6455078125
 20
28.46533203125
 10
33.869140625
 20
28.892578125
 10
33.04150390625
 20
29.14892578125
 10
32.16015625
 20
29.234375
 10
30.728271484375
 20
29.01708984375
 10
29.6357421875
 20
28.365234375
 10
28.943603515625
 20
27.38134765625
 10
28.712890625
 20
26.16796875
 10
28.81787109375
 20
25.336669921875
 10
29.1328125
 20
24.6005859375
 10
29.636962890625
 20
23.99267578125
 10
30.3095703125
 20
23.5458984375
 10
31.233642578125
 20
23.202880859375
 10
32.4921875
 20
22.90625
 10
34.12060546875
 20
22.55712890625
 10
35.158203125
 20
22.232421875
 10
35.158203125
 20
21.958984375
 10
35.060546875
 20
21.281494140625
 10
34.767578125
 20
20.8310546875
 10
34.20361328125
 20
20.578369140625
 10
33.29296875
 20
20.494140625
 10
32.64111328125
 20
20.566162109375
 10
32.150390625
 20
20.7822265625
 10
31.779296875
 20
21.178955078125
 10
31.486328125
 20
21.79296875
  0
LWPOLYLINE
  5
33
330
17
100
AcDbEntity
  8
0
100
AcDbPolyline
 90
18
 70
1
 10
35.158203125
 20
24.01953125
 10
34.47705078125
 20
24.21240234375
 10
33.48828125
 20
24.439453125
 10
32.54345703125
 20
24.68115234375
 10
31.994140625
 20
24.91796875
 10
31.59130859375
 20
25.35009765625
 10
31.45703125
 20
25.884765625
 10
31.564453125
 20
26.421875
 10
31.88671875
 20
26.880859375
 10
32.375
 20
27.19580078125
 10
32.98046875
 20
27.30078125
 10
33.70556640625
 20
27.1787109375
 10
34.396484375
 20
26.8125
 10
34.80908203125
 20
26.39990234375
 10
35.05078125
 20
25.904296875
 10
35.13134765625
 20
25.39404296875
 10
35.158203125
 20
24.56640625
 10
35.158203125
 20
24.01953125
  0
LWPOLYLINE
  5
34
330
17
100
AcDbEntity
  8
0
100
AcDbPolyline
 90
27
 70
1
 10
39.234375
 20
18.62890625
 10
40.7578125
 20
18.62890625
 10
40.7578125
 20
17.84765625
 10
40.827392578125
 20
16.705078125
 10
41.0361328125
 20
15.89453125
 10
41.431640625
 20
15.309814453125
 10
42.0615234375
 20
14.8447265625
 10
42.907470703125
 20
14.540771484375
 10
43.951171875
 20
14.439453125
 10
45.11083984375
 20
14.52734375
 10
46.24609375
 20
14.791015625
 10
45.875
 20
16.705078125
 10
45.23291015625
 20
16.587890625
 10
44.615234375
 20
16.548828125
 10
44.103759765625
 20
16.618408203125
 10
43.7607421875
 20
16.8271484375
 10
43.566650390625
 20
17.233642578125
 10
43.501953125
 20
17.896484375
 10
43.501953125
 20
18.62890625
 10
45.552734375
 20
18.62890625
 10
45.552734375
 20
20.787109375
 10
43.501953125
 20
20.787109375
 10
43.501953125
 20
29.0
 10
40.7578125
 20
29.0
 10
40.7578125
 20
20.787109375
 10
39.234375
 20
20.787109375
 10
39.234375
 20
18.62890625
  0
LWPOLYLINE
  5
35
330
17
100
AcDbEntity
  8
0
100
AcDbPolyline
 90
47
 70
1
 10
49.486328125
 20
21.79296875
 10
46.99609375
 20
21.34375
 10
47.5673828125
 20
20.03515625
 10
48.44140625
 20
19.1171875
 10
49.7158203125
 20
18.5751953125
 10
51.48828125
 20
18.39453125
 10
53.08984375
 20
18.503173828125
 10
54.22265625
 20
18.8291015625
 10
54.988037109375
 20
19.322265625
 10
55.4873046875
 20
19.9326171875
 10
55.761962890625
 20
20.881103515625
 10
55.853515625
 20
22.388671875
 10
55.82421875
 20
25.591796875
 10
55.857177734375
 20
26.779541015625
 10
55.9560546875
 20
27.6083984375
 10
56.145263671875
 20
28.281005859375
 10
56.44921875
 20
29.0
 10
53.734375
 20
29.0
 10
53.61474609375
 20
28.66064453125
 10
53.470703125
 20
28.189453125
 10
53.412109375
 20
27.98681640625
 10
53.373046875
 20
27.8671875
 10
52.6455078125
 20
28.46533203125
 10
51.869140625
 20
28.892578125
 10
51.04150390625
 20
29.14892578125
 10
50.16015625
 20
29.234375
 10
48.728271484375
 20
29.01708984375
 10
47.6357421875
 20
28.365234375
 10
46.943603515625
 20
27.38134765625
 10
46.712890625
 20
26.16796875
 10
46.81787109375
 20
25.336669921875
 10
47.1328125
 20
24.6005859375
 10
47.636962890625
 20
23.99267578125
 10
48.3095703125
 20
23.5458984375
 10
49.233642578125
 20
23.202880859375
 10
50.4921875
 20
22.90625
 10
52.12060546875
 20
22.55712890625
 10
53.158203125
 20
22.232421875
 10
53.158203125
 20
21.958984375
 10
53.060546875
 20
21.281494140625
 10
52.767578125
 20
20.8310546875
 10
52.20361328125
 20
20.578369140625
 10
51.29296875
 20
20.494140625
 10
50.64111328125
 20
20.566162109375
 10
50.150390625
 20
20.7822265625
 10
49.779296875
 20
21.178955078125
 10
49.486328125
 20
21.79296875
  0
LWPOLYLINE
  5
36
330
17
100
AcDbEntity
  8
0
100
AcDbPolyline
 90
18
 70
1
 10
53.158203125
 20
24.01953125
 10
52.47705078125
 20
24.21240234375
 10
51.48828125
 20
24.439453125
 10
50.54345703125
 20
24.68115234375
 10
49.994140625
 20
24.91796875
 10
49.59130859375
 20
25.35009765625
 10
49.45703125
 20
25.884765625
 10
49.564453125
 20
26.421875
 10
49.88671875
 20
26.880859375
 10
50.375
 20
27.19580078125
 10
50.98046875
 20
27.30078125
 10
51.70556640625
 20
27.1787109375
 10
52.396484375
 20
26.8125
 10
52.80908203125
 20
26.39990234375
 10
53.05078125
 20
25.904296875
 10
53.13134765625
 20
25.39404296875
 10
53.158203125
 20
24.56640625
 10
53.158203125
 20
24.01953125
  0
LWPOLYLINE
  5
37
330
17
100
AcDbEntity
  8
0
100
AcDbPolyline
 90
31
 70
1
 10
57.234375
 20
18.62890625
 10
58.7578125
 20
18.62890625
 10
58.7578125
 20
17.84765625
 10
58.827392578125
 20
16.705078125
 10
59.0361328125
 20
15.89453125
 10
59.431640625
 20
15.309814453125
 10
60.0615234375
 20
14.8447265625
 10
60.907470703125
 20
14.540771484375
 10
61.951171875
 20
14.439453125
 10
63.11083984375
 20
14.52734375
 10
64.24609375
 20
14.791015625
 10
63.875
 20
16.705078125
 10
63.23291015625
 20
16.587890625
 10
62.615234375
 20
16.548828125
 10
62.103759765625
 20
16.618408203125
 10
61.7607421875
 20
16.8271484375
 10
61.566650390625
 20
17.233642578125
 10
61.501953125
 20
17.896484375
 10
61.501953125
 20
18.62890625
 10
63.552734375
 20
18.62890625
 10
63.552734375
 20
19.463928768156645
 10
65.01386070293749
 20
20.0691471095625
 10
65.74609375
 20
21.8369140625
 10
65.01386070293749
 20
23.6046810154375
 10
63.24609375
 20
24.3369140625
 10
61.501953125
 20
23.614467360898836
 10
61.501953125
 20
29.0
 10
58.7578125
 20
29.0
 10
58.7578125
 20
20.787109375
 10
57.234375
 20
20.787109375
 10
57.234375
 20
18.62890625
  0
LWPOLYLINE
  5
38
330
17
100
AcDbEntity
  8
0
100
AcDbPolyline
 90
9
 70
1
 10
18.884375
 20
21.8369140625
 10
18.518258476468752
 20
22.720797538968753
 10
17.634375
 20
23.0869140625
 10
16.750491523531245
 20
22.720797538968753
 10
16.384375
 20
21.8369140625
 10
16.750491523531245
 20
20.953030586031247
 10
17.634375
 20
20.5869140625
 10
18.518258476468752
 20
20.953030586031247
 10
18.884375
 20
21.8369140625
  0
LWPOLYLINE
  5
39
330
17
100
AcDbEntity
  8
0
100
AcDbPolyline
 90
9
 70
1
 10
64.49609375
 20
21.8369140625
 10
64.12997722646875
 20
22.720797538968753
 10
63.24609375
 20
23.0869140625
 10
62.362210273531254
 20
22.720797538968753
 10
61.99609375
 20
21.8369140625
 10
62.362210273531254
 20
20.953030586031247
 10
63.24609375
 20
20.5869140625
 10
64.12997722646875
 20
20.953030586031247
 10
64.49609375
 20
21.8369140625
  0
ENDSEC
  0
SECTION
  2
OBJECTS
  0
DICTIONARY
  5
A
330
0
100
AcDbDictionary
281
1
  3
ACAD_COLOR
350
B
  3
ACAD_GROUP
350
C
  3
ACAD_LAYOUT
350
D
  3
ACAD_MATERIAL
350
E
  3
ACAD_MLEADERSTYLE
350
F
  3
ACAD_MLINESTYLE
350
10
  3
ACAD_PLOTSETTINGS
350
11
  3
ACAD_PLOTSTYLENAME
350
12
  3
ACAD_SCALELIST
350
14
  3
ACAD_TABLESTYLE
350
15
  3
ACAD_VISUALSTYLE
350
16
  3
EZDXF_META
350
2D
  0
DICTIONARY
  5
B
330
A
100
AcDbDictionary
281
1
  0
DICTIONARY
  5
C
330
A
100
AcDbDictionary
281
1
  0
DICTIONARY
  5
D
330
A
100
AcDbDictionary
281
1
  3
Model
350
1A
  3
Layout1
350
1E
  0
DICTIONARY
  5
E
330
A
100
AcDbDictionary
281
1
  3
ByBlock
350
1F
  3
ByLayer
350
20
  3
Global
350
21
  0
DICTIONARY
  5
F
330
A
100
AcDbDictionary
281
1
  3
Standard
350
2C
  0
DICTIONARY
  5
10
330
A
100
AcDbDictionary
281
1
  3
Standard
350
22
  0
DICTIONARY
  5
11
330
A
100
AcDbDictionary
281
1
  0
ACDBDICTIONARYWDFLT
  5
12
330
A
100
AcDbDictionary
281
1
  3
Normal
350
13
100
AcDbDictionaryWithDefault
340
13
  0
ACDBPLACEHOLDER
  5
13
330
12
  0
DICTIONARY
  5
14
330
A
100
AcDbDictionary
281
1
  0
DICTIONARY
  5
15
330
A
100
AcDbDictionary
281
1
  0
DICTIONARY
  5
16
330
A
100
AcDbDictionary
281
1
  0
LAYOUT
  5
1A
330
D
100
AcDbPlotSettings
  1

  4
A3
  6

 40
7.5
 41
20.0
 42
7.5
 43
20.0
 44
420.0
 45
297.0
 46
0.0
 47
0.0
 48
0.0
 49
0.0
140
0.0
141
0.0
142
1.0
143
1.0
 70
1024
 72
1
 73
0
 74
5
  7

 75
16
 76
0
 77
2
 78
300
147
1.0
148
0.0
149
0.0
100
AcDbLayout
  1
Model
 70
1
 71
0
 10
0.0
 20
0.0
 11
420.0
 21
297.0
 12
0.0
 22
0.0
 32
0.0
 14
1e+20
 24
1e+20
 34
1e+20
 15
-1e+20
 25
-1e+20
 35
-1e+20
146
0.0
 13
0.0
 23
0.0
 33
0.0
 16
1.0
 26
0.0
 36
0.0
 17
0.0
 27
1.0
 37
0.0
 76
1
330
17
  0
LAYOUT
  5
1E
330
D
100
AcDbPlotSettings
  1

  4
A3
  6

 40
7.5
 41
20.0
 42
7.5
 43
20.0
 44
420.0
 45
297.0
 46
0.0
 47
0.0
 48
0.0
 49
0.0
140
0.0
141
0.0
142
1.0
143
1.0
 70
0
 72
1
 73
0
 74
5
  7

 75
16
 76
0
 77
2
 78
300
147
1.0
148
0.0
149
0.0
100
AcDbLayout
  1
Layout1
 70
1
 71
1
 10
0.0
 20
0.0
 11
420.0
 21
297.0
 12
0.0
 22
0.0
 32
0.0
 14
1e+20
 24
1e+20
 34
1e+20
 15
-1e+20
 25
-1e+20
 35
-1e+20
146
0.0
 13
0.0
 23
0.0
 33
0.0
 16
1.0
 26
0.0
 36
0.0
 17
0.0
 27
1.0
 37
0.0
 76
1
330
1B
  0
MATERIAL
  5
1F
102
{ACAD_REACTORS
330
E
102
}
330
E
100
AcDbMaterial
  1
ByBlock
  2

 70
0
 40
1.0
 71
1
 41
1.0
 91
-1023410177
 42
1.0
 72
1
  3

 73
1
 74
1
 75
1
 44
0.5
 73
0
 45
1.0
 46
1.0
 77
1
  4

 78
1
 79
1
170
1
 48
1.0
171
1
  6

172
1
173
1
174
1
140
1.0
141
1.0
175
1
  7

176
1
177
1
178
1
143
1.0
179
1
  8

270
1
271
1
272
1
145
1.0
146
1.0
273
1
  9

274
1
275
1
276
1
 42
1.0
 72
1
  3

 73
1
 74
1
 75
1
 94
63
  0
MATERIAL
  5
20
102
{ACAD_REACTORS
330
E
102
}
330
E
100
AcDbMaterial
  1
ByLayer
  2

 70
0
 40
1.0
 71
1
 41
1.0
 91
-1023410177
 42
1.0
 72
1
  3

 73
1
 74
1
 75
1
 44
0.5
 73
0
 45
1.0
 46
1.0
 77
1
  4

 78
1
 79
1
170
1
 48
1.0
171
1
  6

172
1
173
1
174
1
140
1.0
141
1.0
175
1
  7

176
1
177
1
178
1
143
1.0
179
1
  8

270
1
271
1
272
1
145
1.0
146
1.0
273
1
  9

274
1
275
1
276
1
 42
1.0
 72
1
  3

 73
1
 74
1
 75
1
 94
63
  0
MATERIAL
  5
21
102
{ACAD_REACTORS
330
E
102
}
330
E
100
AcDbMaterial
  1
Global
  2

 70
0
 40
1.0
 71
1
 41
1.0
 91
-1023410177
 42
1.0
 72
1
  3

 73
1
 74
1
 75
1
 44
0.5
 73
0
 45
1.0
 46
1.0
 77
1
  4

 78
1
 79
1
170
1
 48
1.0
171
1
  6

172
1
173
1
174
1
140
1.0
141
1.0
175
1
  7

176
1
177
1
178
1
143
1.0
179
1
  8

270
1
271
1
272
1
145
1.0
146
1.0
273
1
  9

274
1
275
1
276
1
 42
1.0
 72
1
  3

 73
1
 74
1
 75
1
 94
63
  0
MLINESTYLE
  5
22
102
{ACAD_REACTORS
330
10
102
}
330
10
100
AcDbMlineStyle
  2
Standard
 70
0
  3

 62
256
 51
90.0
 52
90.0
 71
2
 49
0.5
 62
256
  6
BYLAYER
 49
-0.5
 62
256
  6
BYLAYER
  0
MLEADERSTYLE
  5
2C
102
{ACAD_REACTORS
330
F
102
}
330
F
100
AcDbMLeaderStyle
179
2
170
2
171
1
172
0
 90
2
 40
0.0
 41
0.0
173
1
 91
-1056964608
 92
-2
290
1
 42
2.0
291
1
 43
8.0
  3
Standard
 44
4.0
300

342
29
174
1
175
1
176
0
178
1
 93
-1056964608
 45
4.0
292
0
297
0
 46
4.0
 94
-1056964608
 47
1.0
 49
1.0
140
1.0
294
1
141
0.0
177
0
142
1.0
295
0
296
0
143
3.75
271
0
272
9
273
9
  0
DICTIONARY
  5
2D
330
A
100
AcDbDictionary
280
1
281
1
  3
CREATED_BY_EZDXF
350
2E
  3
WRITTEN_BY_EZDXF
350
3C
  0
DICTIONARYVAR
  5
2E
330
2D
100
DictionaryVariables
280
0
  1
1.4.2 @ 2025-05-29T08:15:11.079637+00:00
  0
DICTIONARYVAR
  5
3C
330
2D
100
DictionaryVariables
280
0
  1
1.4.2 @ 2025-05-29T08:15:11.082082+00:00
  0
ENDSEC
  0
EOF
